<?xml version="1.0" encoding="utf-8"?>
<!-- Generator: Adobe Illustrator 16.0.0, SVG Export Plug-In . SVG Version: 6.00 Build 0)  -->
<!DOCTYPE svg PUBLIC "-//W3C//DTD SVG 1.1//EN" "http://www.w3.org/Graphics/SVG/1.1/DTD/svg11.dtd">
<svg version="1.1" id="Layer_1" xmlns="http://www.w3.org/2000/svg" xmlns:xlink="http://www.w3.org/1999/xlink" x="0px" y="0px"
	 width="1541.004px" height="273.787px" viewBox="0 0 1541.004 273.787" enable-background="new 0 0 1541.004 273.787"
	 xml:space="preserve">
<g>
	<g>
		<polygon fill="#00007F" points="376.011,22.47 344.73,22.47 344.73,247.114 485.016,247.114 485.016,218.444 376.011,218.444 		
			"/>
		<path fill="#00007F" d="M597.965,178.637c0,14.414-3.698,25.321-11.305,33.358c-7.524,7.95-17.652,11.813-30.963,11.813
			c-11.818,0-20.178-2.646-24.847-7.863c-4.828-5.385-7.276-15.16-7.276-29.039V81.896h-28.961v109.213
			c0,19.567,4.933,34.642,14.664,44.795c9.794,10.232,24.338,15.414,43.229,15.414c12.5,0,23.535-2.623,32.796-7.813
			c4.779-2.674,9.204-6.087,13.242-10.226v13.835h28.381V81.896h-28.961V178.637z"/>
		<path fill="#00007F" d="M793.15,222.873c-0.892,0.043-1.964,0.065-3.21,0.065c-2.964,0-4.232-0.442-4.616-0.616
			c-0.239-0.624-0.834-2.688-0.834-8.022v-84.074c0-16.929-5.5-30.075-16.364-39.076c-10.55-8.733-25.888-13.168-45.587-13.168
			c-19.785,0-35.846,4.936-47.737,14.668c-12.182,9.972-18.574,23.64-18.998,40.627l-0.141,5.652l28.53,0.239l0.273-5.326
			c0.499-9.704,3.689-16.734,9.758-21.488c6.305-4.935,15.831-7.436,28.314-7.436c12.182,0,20.828,2.145,25.7,6.385
			c4.647,4.044,7.002,11.284,7.002,21.531c0,2.464,0,9.965-17.501,13.538c-2.006,0.376-3.631,0.695-4.877,0.949
			c-2.089,0.202-5.091,0.449-9.003,0.746c-22.312,1.682-37.956,4.675-47.916,9.183c-8.936,4.239-15.878,10.146-20.636,17.552
			c-4.769,7.429-7.187,16.183-7.187,26.018c0,15.139,5.292,27.466,15.731,36.648c10.231,9.001,23.977,13.559,40.857,13.559
			c11.675,0,22.747-2.362,32.907-7.029c6.881-3.16,13.471-7.442,19.685-12.798c1.16,4.181,3.165,7.667,5.999,10.421
			c4.729,4.609,11.596,6.942,20.408,6.942c2,0,4.254-0.13,6.696-0.392c2.405-0.268,4.841-0.659,7.239-1.181l4.385-0.949v-23.93
			l-6.073,0.558C794.976,222.764,794.042,222.829,793.15,222.873z M754.951,168.28v13.842c0,13.023-4.14,22.952-12.659,30.373
			c-8.622,7.508-20.536,11.313-35.409,11.313c-9.334,0-16.692-2.195-21.864-6.522c-4.952-4.152-7.359-9.631-7.359-16.755
			c0-6.196,2.279-11.371,6.968-15.828c4.99-4.739,12.671-8.529,22.837-11.262c16.471-0.877,28.139-1.834,35.652-2.921
			C747.461,169.896,751.418,169.15,754.951,168.28z"/>
		<polygon fill="#00007F" points="1040.478,22.47 876.709,22.47 876.709,51.139 942.955,51.139 942.955,247.114 974.233,247.114 
			974.233,51.139 1040.478,51.139 		"/>
		<path fill="#00007F" d="M1149.88,222.873c-0.892,0.043-1.957,0.065-3.203,0.065c-2.972,0-4.24-0.442-4.624-0.616
			c-0.239-0.624-0.833-2.696-0.833-8.022v-84.074c0-16.929-5.501-30.075-16.364-39.076c-10.545-8.733-25.887-13.168-45.584-13.168
			c-19.792,0-35.852,4.936-47.736,14.668c-12.183,9.972-18.574,23.64-19.002,40.627l-0.138,5.652l28.531,0.239l0.269-5.326
			c0.5-9.704,3.688-16.734,9.762-21.488c6.305-4.935,15.828-7.436,28.314-7.436c12.175,0,20.828,2.145,25.698,6.385
			c4.646,4.044,7,11.284,7,21.531c0,2.464,0,9.965-17.501,13.538c-2.008,0.376-3.631,0.695-4.878,0.949
			c-2.087,0.202-5.095,0.449-9.001,0.746c-22.313,1.682-37.96,4.675-47.917,9.183c-8.936,4.239-15.879,10.146-20.633,17.552
			c-4.769,7.429-7.188,16.183-7.188,26.018c0,15.139,5.29,27.466,15.733,36.648c10.226,9.001,23.973,13.559,40.858,13.559
			c11.668,0,22.741-2.362,32.902-7.029c6.885-3.16,13.472-7.442,19.689-12.791c1.16,4.174,3.16,7.66,5.994,10.414
			c4.732,4.609,11.595,6.942,20.407,6.942c2.029,0,4.218-0.13,6.696-0.392c2.398-0.261,4.841-0.659,7.24-1.181l4.392-0.949v-23.93
			l-6.073,0.558C1151.707,222.764,1150.772,222.829,1149.88,222.873z M1111.681,168.28v13.842c0,13.023-4.139,22.959-12.661,30.373
			c-8.617,7.508-20.531,11.313-35.402,11.313c-9.341,0-16.697-2.195-21.871-6.522c-4.95-4.152-7.355-9.631-7.355-16.755
			c0-6.196,2.282-11.371,6.964-15.828c4.993-4.739,12.675-8.529,22.843-11.262c16.473-0.877,28.141-1.834,35.648-2.921
			C1104.195,169.896,1108.151,169.15,1111.681,168.28z"/>
		<path fill="#00007F" d="M1249.158,77.982c-13.212,0-24.879,2.892-34.691,8.581c-5.052,2.942-9.668,6.646-13.813,11.088V22.47
			h-28.959v224.645h28.959v-14.878c3.899,4.108,8.291,7.595,13.161,10.429c9.855,5.739,21.356,8.652,34.185,8.652
			c23.053,0,41.562-7.965,55.034-23.684c13.247-15.473,19.966-36.634,19.966-62.911c0-26.358-6.617-47.556-19.654-63.014
			C1290.075,85.968,1271.841,77.982,1249.158,77.982z M1212.118,119.783c8.001-10.001,19.212-14.864,34.286-14.864
			c14.965,0,26.133,4.884,34.126,14.929c8.189,10.291,12.342,25.394,12.342,44.874c0,19.581-4.123,34.677-12.262,44.873
			c-7.95,9.95-19.14,14.792-34.206,14.792c-14.689,0-25.814-4.957-34.003-15.168c-8.371-10.429-12.617-25.401-12.617-44.497
			C1199.784,145.141,1203.936,130.023,1212.118,119.783z"/>
		<rect x="1344.914" y="22.47" fill="#00007F" width="28.814" height="224.645"/>
		<path fill="#00007F" d="M1541.004,161.969c0-25.967-6.269-46.606-18.625-61.34c-12.596-15.023-30.3-22.647-52.606-22.647
			c-22.894,0-41.091,7.95-54.077,23.618c-12.727,15.357-19.184,36.786-19.184,63.702c0,26.445,6.436,47.549,19.133,62.717
			c12.936,15.465,30.952,23.299,53.548,23.299c18.821,0,34.729-5.174,47.287-15.378c12.697-10.313,20.205-24.19,22.307-41.251
			l0.769-6.246h-28.895l-0.725,4.718c-1.536,9.972-5.71,17.581-12.77,23.248c-7.167,5.762-15.943,8.559-26.813,8.559
			c-13.632,0-24.169-4.805-32.214-14.689c-7.457-9.167-11.58-21.531-12.269-36.801h115.134V161.969z M1439.198,117.565
			c7.813-8.704,17.719-12.936,30.285-12.936c12.437,0,22.089,4.138,29.503,12.654c6.603,7.58,10.646,17.943,12.037,30.851
			l-84.472-0.123C1428.066,135.466,1432.313,125.24,1439.198,117.565z"/>
	</g>
	<g>
		<rect y="71.04" fill="#00007F" width="128.304" height="57.266"/>
		<rect y="145.481" fill="#00007F" width="128.304" height="57.267"/>
		<path fill="#00007F" d="M200.648,0h-55.165v53.86h21.544c-0.049-0.953-0.076-1.917-0.076-2.885
			C166.951,28.086,180.84,8.436,200.648,0z"/>
		<rect x="145.483" y="145.481" fill="#00007F" width="128.304" height="57.267"/>
		<path fill="#00007F" d="M222.329,106.358c-23.507,0-43.577-14.654-51.614-35.318h-25.232v57.266h128.304v-56.85
			C265.641,91.9,245.681,106.358,222.329,106.358z"/>
		<path fill="#00007F" d="M0,46.464v7.396h128.304V0H46.466C20.804,0,0,20.803,0,46.464z"/>
		<path fill="#00007F" d="M145.483,273.787h81.838c25.662,0,46.466-20.803,46.466-46.465v-7.396H145.483V273.787z"/>
		<path fill="#00007F" d="M0,227.322c0,25.662,20.804,46.465,46.466,46.465h81.837v-53.86H0V227.322z"/>
		<path fill="#00007F" d="M266.39,43.442c0,19.908-16.134,36.047-36.043,36.047c-19.908,0-36.043-16.139-36.043-36.047
			s16.135-36.047,36.043-36.047C250.256,7.396,266.39,23.535,266.39,43.442z"/>
	</g>
</g>
</svg>
