<?xml version="1.0" encoding="utf-8"?>
<!-- Generator: Adobe Illustrator 16.0.0, SVG Export Plug-In . SVG Version: 6.00 Build 0)  -->
<!DOCTYPE svg PUBLIC "-//W3C//DTD SVG 1.1//EN" "http://www.w3.org/Graphics/SVG/1.1/DTD/svg11.dtd">
<svg version="1.1" id="Layer_1" xmlns="http://www.w3.org/2000/svg" xmlns:xlink="http://www.w3.org/1999/xlink" x="0px" y="0px"
	 width="557.224px" height="557.227px" viewBox="0 0 557.224 557.227" enable-background="new 0 0 557.224 557.227"
	 xml:space="preserve">
<g>
	<rect y="144.584" fill="#00007F" width="261.132" height="116.552"/>
	<rect y="296.092" fill="#00007F" width="261.132" height="116.553"/>
	<path fill="#00007F" d="M408.369,0H296.096v109.62h43.851c-0.104-1.94-0.163-3.901-0.163-5.87
		C339.783,57.162,368.06,17.169,408.369,0z"/>
	<rect x="296.096" y="296.092" fill="#00007F" width="261.128" height="116.553"/>
	<path fill="#00007F" d="M452.501,216.466c-47.849,0-88.689-29.824-105.048-71.882h-51.357v116.552h261.128V145.432
		C540.645,187.04,500.024,216.466,452.501,216.466z"/>
	<path fill="#00007F" d="M0,94.568v15.052h261.132V0H94.571C42.342,0,0,42.338,0,94.568z"/>
	<path fill="#00007F" d="M296.096,557.227h166.567c52.229,0,94.561-42.339,94.561-94.566v-15.053H296.096V557.227z"/>
	<path fill="#00007F" d="M0,462.66c0,52.228,42.342,94.566,94.571,94.566h166.561V447.607H0V462.66z"/>
	<path fill="#00007F" d="M542.179,88.417c0,40.518-32.848,73.365-73.365,73.365s-73.35-32.848-73.35-73.365
		c0-40.517,32.832-73.365,73.35-73.365S542.179,47.899,542.179,88.417z"/>
</g>
</svg>
